# xmcd
#
# Track frame offsets: 
#        150
#        24496
#        41950
#        60136
#        77892
#        97166
#        125571
#        147859
#        164350
#        189530
#        210578
#        229548
#        249123
#        286251
#
# Disc length: 4361 seconds
#
# Revision: 1
# Processed by: cddbd v1.5.2PL0 Copyright (c) Steve Scherf et al.
# Submitted via: ExactAudioCopyFreeDBPlugin 1.0
#
DISCID=bc11070e
DTITLE=The Emotions - Sincerely
DYEAR=1984
DGENRE=Soul
TTITLE0=All Things Come In Time
TTITLE1=Are You Through With My Heart
TTITLE2=You're The One
TTITLE3=Can't Blow Out The Candle
TTITLE4=Sincerely
TTITLE5=You're The Best
TTITLE6=You Know I'm The One
TTITLE7=Never Let Another
TTITLE8=I Can Do Anything
TTITLE9=Eternally
TTITLE10=The Good Times
TTITLE11=Giving You All I Got
TTITLE12=You're The Best (M&M Mix)
TTITLE13=You're The Best (M&M Re-Edit)
EXTD=
EXTT0=
EXTT1=
EXTT2=
EXTT3=
EXTT4=
EXTT5=
EXTT6=
EXTT7=
EXTT8=
EXTT9=
EXTT10=
EXTT11=
EXTT12=
EXTT13=
PLAYORDER=
